# xmcd CD database file
#
# Track frame offsets:
#	150
#	21802
#	50371
#	80047
#	111344
#	129341
#	162463
#	182802
#	205219
#	233990
#
# Disc length: 3450 seconds
#
# Revision: 0
# Processed by: cddbd v1.5.2PL0 Copyright (c) Steve Scherf et al.
# Submitted via: CDex 1.51
#
DISCID=870d780a
DTITLE=David Gordon - Angel Feet
DYEAR=2002
DGENRE=Jazz
TTITLE0=Angel Feet
TTITLE1=The Alchemist and the Catflap
TTITLE2=English Isobars
TTITLE3=I remember You
TTITLE4=Bebop Tango
TTITLE5=Franceso's Rhumba
TTITLE6=Pavanne Tombeau
TTITLE7=Snakes and Landers
TTITLE8=Food Morning Heartache
TTITLE9=Voyage
EXTD=YEAR: 2002
EXTT0=
EXTT1=
EXTT2=
EXTT3=
EXTT4=
EXTT5=
EXTT6=
EXTT7=
EXTT8=
EXTT9=
PLAYORDER=
